<?xml version="1.0" encoding="UTF-8" standalone="no" ?>
<!DOCTYPE svg PUBLIC "-//W3C//DTD SVG 1.1//EN" "http://www.w3.org/Graphics/SVG/1.1/DTD/svg11.dtd">
<svg xmlns="http://www.w3.org/2000/svg" xmlns:xlink="http://www.w3.org/1999/xlink" version="1.1" width="640" height="480" viewBox="0 0 640 480" xml:space="preserve">
<desc>Created with Fabric.js 3.6.6</desc>
<defs>
</defs>
<g transform="matrix(3.66 0 0 3.66 318.8 240.8)"  >
<linearGradient id="SVGID_263" gradientUnits="userSpaceOnUse" gradientTransform="matrix(1 0 0 1 -65 -65)"  x1="19.5" y1="19.5" x2="110.5" y2="110.5">
<stop offset="46.349%" style="stop-color:rgba(98, 176, 30, 1);"/>
<stop offset="100%" style="stop-color:rgba(218, 249, 9, 1);"/>
</linearGradient>
<circle style="stroke: none; stroke-width: 1; stroke-dasharray: none; stroke-linecap: butt; stroke-dashoffset: 0; stroke-linejoin: miter; stroke-miterlimit: 4; fill: url(#SVGID_263); fill-rule: nonzero; opacity: 1;"  cx="0" cy="0" r="65" />
</g>
<g transform="matrix(1.33 0 0 1.33 315.26 242.34)"  >
<g style=""   >
		<g transform="matrix(1 0 0 1 4.91 -0.26)"  >
<polygon style="stroke: rgb(216,193,28); stroke-opacity: 0.14; stroke-width: 3; stroke-dasharray: none; stroke-linecap: round; stroke-dashoffset: 0; stroke-linejoin: round; stroke-miterlimit: 4; fill: rgb(252,225,33); fill-rule: nonzero; opacity: 1;"  points="-117.77,-132.77 19.1,-165.04 19.47,-57.84 77.71,-72.68 77.34,28.21 118.88,16.34 34.68,165.04 31.34,80.1 -31.71,96.42 -32.08,1.46 -118.88,22.23 -117.84,-132.69 " />
</g>
		<g transform="matrix(1 0 0 1 -91.44 -96.94)"  >
<path style="stroke: rgb(0,0,0); stroke-width: 1; stroke-dasharray: none; stroke-linecap: butt; stroke-dashoffset: 0; stroke-linejoin: miter; stroke-miterlimit: 4; fill: rgb(0,0,0); fill-rule: nonzero; opacity: 1;"  transform=" translate(-33.06, -69.06)" d="M 66.091 51.592 L 52.047 41.824 L 45.745 38.823 L 40.243 37.022 L 34.441 35.521 L 30.039 35.521 L 24.337 36.322 L 19.836 37.822 L 15.334 39.823 L 11.533 42.224 L 8.531 45.525 L 5.63 50.527 L 3.73 54.228 L 1.929 59.73 L 0.527 65.794 L 0.15 71.849 L 0.024 78.504 L 0.527 81.504 L 1.405 85.271 L 2.536 89.54 L 3.917 93.433 L 5.047 97.2 L 6.051 101.469 L 6.805 102.599 L 8.312 101.092 L 7.935 86.276 L 8.563 74.347 L 10.572 65.682 L 13.962 59.153 L 19.11 52.875 L 26.519 48.229 L 32.923 45.341 L 40.834 44.336 L 46.735 45.466 L 52.511 46.847 L 66.091 51.592 Z" stroke-linecap="round" />
</g>
		<g transform="matrix(1 0 0 1 -8.5 -111.12)"  >
<path style="stroke: rgb(0,0,0); stroke-width: 1; stroke-dasharray: none; stroke-linecap: butt; stroke-dashoffset: 0; stroke-linejoin: miter; stroke-miterlimit: 4; fill: rgb(0,0,0); fill-rule: nonzero; opacity: 1;"  transform=" translate(-116, -54.88)" d="M 74.347 47.315 L 78.225 42.562 L 81.977 39.06 L 86.355 35.933 L 90.857 33.432 L 94.86 30.93 L 99.988 28.679 L 104.866 27.428 L 109.869 26.803 L 115.372 26.302 L 120.25 26.427 L 127.504 27.553 L 131.632 28.679 L 136.635 30.555 L 140.887 33.807 L 145.515 37.684 L 150.143 43.062 L 153.77 49.316 L 156.397 55.945 L 157.272 62.199 L 157.648 68.077 L 157.648 74.456 L 157.022 81.085 L 156.147 83.462 L 153.395 71.329 L 150.518 61.949 L 144.64 52.818 L 138.511 45.814 L 132.132 41.311 L 124.878 37.934 L 118.124 36.058 L 110.869 35.683 L 104.24 35.683 L 97.736 36.558 L 91.858 38.309 L 74.347 47.315 Z" stroke-linecap="round" />
</g>
		<g transform="matrix(1 0 0 1 -12.5 -57.56)"  >
<ellipse style="stroke: none; stroke-width: 1; stroke-dasharray: none; stroke-linecap: butt; stroke-dashoffset: 0; stroke-linejoin: miter; stroke-miterlimit: 4; fill: rgb(0,0,0); fill-rule: nonzero; opacity: 1;"  cx="0" cy="0" rx="35.216" ry="57.707" />
</g>
		<g transform="matrix(0.94 -0.34 0.32 0.95 -69.86 -52.07)"  >
<ellipse style="stroke: none; stroke-width: 1; stroke-dasharray: none; stroke-linecap: butt; stroke-dashoffset: 0; stroke-linejoin: miter; stroke-miterlimit: 4; fill: rgb(0,0,0); fill-rule: nonzero; opacity: 1;"  cx="0" cy="0" rx="34.308" ry="57.636" />
</g>
		<g transform="matrix(0.87 -0.5 0.22 1.03 -15.06 -52.73)"  >
<ellipse style="stroke: none; stroke-width: 1; stroke-dasharray: none; stroke-linecap: butt; stroke-dashoffset: 0; stroke-linejoin: miter; stroke-miterlimit: 4; fill: rgb(255,255,255); fill-rule: nonzero; opacity: 1;"  cx="0" cy="0" rx="34.257" ry="47.174" />
</g>
		<g transform="matrix(0.9 -0.44 0.35 0.94 -67.64 -48.04)"  >
<ellipse style="stroke: none; stroke-width: 1; stroke-dasharray: none; stroke-linecap: butt; stroke-dashoffset: 0; stroke-linejoin: miter; stroke-miterlimit: 4; fill: rgb(255,255,255); fill-rule: nonzero; opacity: 1;"  cx="0" cy="0" rx="30.807" ry="50.662" />
</g>
		<g transform="matrix(1 0 0 1 -11.76 -28.25)"  >
<ellipse style="stroke: none; stroke-width: 1; stroke-dasharray: none; stroke-linecap: butt; stroke-dashoffset: 0; stroke-linejoin: miter; stroke-miterlimit: 4; fill: rgb(0,0,0); fill-rule: nonzero; opacity: 1;"  cx="0" cy="0" rx="13.827" ry="15.855" />
</g>
		<g transform="matrix(0.98 -0.22 0.26 0.97 -64.49 -26.22)"  >
<ellipse style="stroke: none; stroke-width: 1; stroke-dasharray: none; stroke-linecap: butt; stroke-dashoffset: 0; stroke-linejoin: miter; stroke-miterlimit: 4; fill: rgb(0,0,0); fill-rule: nonzero; opacity: 1;"  cx="0" cy="0" rx="13.227" ry="15.928" />
</g>
		<g transform="matrix(1 0 0 1 31.04 41.23)"  >
<path style="stroke: rgb(0,0,0); stroke-width: 1; stroke-dasharray: none; stroke-linecap: butt; stroke-dashoffset: 0; stroke-linejoin: miter; stroke-miterlimit: 4; fill: rgb(31,30,30); fill-rule: nonzero; opacity: 1;"  transform=" translate(-155.54, -207.23)" d="M 114.176 233.268 L 116.146 227.662 L 120.54 227.814 L 136.752 219.177 L 154.934 207.359 L 167.207 198.571 L 176.147 190.692 L 183.571 181.904 L 182.056 178.116 L 196.298 173.419 L 196.904 174.48 L 187.965 178.571 L 191.45 184.48 L 194.026 192.813 L 193.723 199.329 L 192.207 205.389 L 189.783 211.753 L 186.753 216.298 L 182.965 220.995 L 177.813 226.45 L 168.874 233.42 L 160.54 236.905 L 154.025 239.026 C 152.409 239.683 150.591 240.238 148.57 240.693 C 146.254 241.214 143.88 241.164 141.449 240.541 C 139.658 240.082 137.739 239.628 135.692 239.177 C 132.772 238.534 129.893 237.726 127.055 236.753 C 124.637 235.924 122.415 234.662 120.388 232.965 Q 118.239 231.166 114.176 233.268 Z" stroke-linecap="round" />
</g>
		<g transform="matrix(1 0 0 1 43.04 56.62)"  >
<path style="stroke: rgb(0,0,0); stroke-width: 1; stroke-dasharray: none; stroke-linecap: butt; stroke-dashoffset: 0; stroke-linejoin: miter; stroke-miterlimit: 4; fill: rgb(239,50,51); fill-rule: nonzero; opacity: 1;"  transform=" translate(-167.54, -222.62)" d="M 148.168 237.526 L 148.999 234.097 L 152.738 229.736 L 156.374 226.411 L 160.321 223.918 L 163.126 222.256 L 165.619 220.906 L 167.073 217.997 L 169.358 215.193 L 172.37 212.388 L 175.902 210.103 L 179.019 208.856 L 182.135 207.61 C 182.135 207.61 184.939 206.986 185.043 206.986 C 185.147 206.986 186.809 207.921 186.809 207.921 L 186.913 209.895 L 184.94 213.115 C 184.94 213.115 182.239 216.855 182.239 216.958 C 182.239 217.061 179.85 220.075 179.85 220.075 L 177.357 222.36 L 174.033 225.268 L 168.423 230.462 C 168.423 230.462 163.645 233.786 163.541 233.786 C 163.437 233.786 156.581 236.383 156.581 236.383 L 150.557 238.252 L 148.168 237.526 Z" stroke-linecap="round" />
</g>
</g>
</g>
<g transform="matrix(2.81 0 0 2.81 521.15 391.85)"  >
<g style=""   >
		<g transform="matrix(1 0 0 1 0 0)" id="path1709"  >
<path style="stroke: rgb(255,255,255); stroke-width: 8.125; stroke-dasharray: none; stroke-linecap: round; stroke-dashoffset: 0; stroke-linejoin: round; stroke-miterlimit: 4; fill: none; fill-rule: nonzero; opacity: 1;"  transform=" translate(-30, -30)" d="m 4.6873 31.376 c 6.4437 5.864 10.608 11.142 17.501 23.374 c 14.984 -37.823 35.502 -47.534 32.9 -49.208 c -5.264 -3.5325 -30.874 26.075 -33.971 29.981 c -3.724 -1.972 -16.43 -8.865 -16.43 -4.147 z" stroke-linecap="round" />
</g>
		<g transform="matrix(1 0 0 1 0 0)" id="path936"  >
<path style="stroke: rgb(98,176,30); stroke-width: 3.125; stroke-dasharray: none; stroke-linecap: round; stroke-dashoffset: 0; stroke-linejoin: round; stroke-miterlimit: 4; fill: rgb(98,176,30); fill-rule: evenodd; opacity: 1;"  transform=" translate(-30, -30)" d="m 4.6873 31.376 c 6.4437 5.864 10.608 11.142 17.501 23.374 c 14.984 -37.823 35.502 -47.534 32.9 -49.208 c -5.264 -3.5325 -30.874 26.075 -33.971 29.981 c -3.724 -1.972 -16.43 -8.865 -16.43 -4.147 z" stroke-linecap="round" />
</g>
</g>
</g>
</svg>